<svg width="32" height="32" viewBox="0 0 32 32" fill="none" xmlns="http://www.w3.org/2000/svg">
<rect width="32" height="32" rx="4" fill="#132335"/>
<path d="M4.78 17V9.95H6.07V17H4.78ZM9.6018 17L6.4618 9.95H7.8518L10.3818 15.87H9.9618L12.4918 9.95H13.8318L10.6918 17H9.6018ZM12.8531 17L16.0431 9.95H17.1231L20.3531 17H19.0431L18.1831 15.02L18.7031 15.37H14.4731L15.0131 15.02L14.1531 17H12.8531ZM16.5731 11.33L15.1631 14.67L14.9031 14.36H18.2631L18.0531 14.67L16.6131 11.33H16.5731ZM20.8331 17V9.95H21.8031L25.8931 15.24H25.6331V9.95H26.8331V17H25.8631L21.7831 11.71H22.0331V17H20.8331Z" fill="url(#paint0_linear_848_350)"/>
<path d="M4.63157 23V18.9815H6.41567C6.85647 18.9815 7.19277 19.0879 7.42457 19.3007C7.65637 19.5135 7.77227 19.8061 7.77227 20.1785C7.77227 20.5471 7.65637 20.8397 7.42457 21.0563C7.19277 21.2729 6.85647 21.3812 6.41567 21.3812H5.36687V23H4.63157ZM5.36687 20.7998H6.33017C6.57337 20.7998 6.75577 20.7466 6.87737 20.6402C6.99897 20.53 7.05977 20.3761 7.05977 20.1785C7.05977 19.9809 6.99897 19.8289 6.87737 19.7225C6.75577 19.6123 6.57337 19.5572 6.33017 19.5572H5.36687V20.7998ZM8.25686 23V18.9815H10.0125C10.4533 18.9815 10.7934 19.086 11.0328 19.295C11.276 19.504 11.3976 19.7947 11.3976 20.1671C11.3976 20.4141 11.3425 20.625 11.2323 20.7998C11.1259 20.9746 10.972 21.1095 10.7706 21.2045C10.5692 21.2957 10.3317 21.3413 10.0581 21.3413L10.1379 21.233H10.3317C10.4913 21.233 10.6338 21.2748 10.7592 21.3584C10.8846 21.442 10.9872 21.5693 11.067 21.7403L11.6541 23H10.8447L10.2519 21.6947C10.1987 21.5617 10.117 21.4743 10.0068 21.4325C9.90036 21.3907 9.77116 21.3698 9.61916 21.3698H8.99216V23H8.25686ZM8.99216 20.8283H9.89276C10.1512 20.8283 10.3469 20.7751 10.4799 20.6687C10.6167 20.5585 10.6851 20.3989 10.6851 20.1899C10.6851 19.9809 10.6167 19.8232 10.4799 19.7168C10.3469 19.6104 10.1512 19.5572 9.89276 19.5572H8.99216V20.8283ZM13.7639 23.057C13.1901 23.057 12.7626 22.9145 12.4814 22.6295C12.204 22.3407 12.0653 21.9151 12.0653 21.3527V18.9815H12.8006V21.347C12.8006 21.7042 12.8766 21.974 13.0286 22.1564C13.1844 22.3388 13.4295 22.43 13.7639 22.43C14.0831 22.43 14.3225 22.3388 14.4821 22.1564C14.6455 21.974 14.7272 21.7042 14.7272 21.347V18.9815H15.4511V21.3527C15.4511 21.9151 15.3086 22.3407 15.0236 22.6295C14.7424 22.9145 14.3225 23.057 13.7639 23.057ZM16.1364 23V18.9815H17.5956C18.0554 18.9815 18.443 19.0613 18.7584 19.2209C19.0776 19.3767 19.3189 19.6047 19.4823 19.9049C19.6457 20.2013 19.7274 20.5623 19.7274 20.9879C19.7274 21.4097 19.6457 21.7707 19.4823 22.0709C19.3189 22.3711 19.0776 22.601 18.7584 22.7606C18.443 22.9202 18.0554 23 17.5956 23H16.1364ZM16.8717 22.3901H17.55C18.0364 22.3901 18.3974 22.2742 18.633 22.0424C18.8686 21.8106 18.9864 21.4591 18.9864 20.9879C18.9864 20.5129 18.8686 20.1614 18.633 19.9334C18.3974 19.7016 18.0364 19.5857 17.55 19.5857H16.8717V22.3901ZM20.3072 23V18.9815H21.0425V20.7599H21.0539L22.8038 18.9815H23.693L21.5954 21.0734L21.6011 20.7542L23.8298 23H22.9121L21.0539 21.1418H21.0425V23H20.3072ZM23.64 20.9879C23.64 20.5661 23.716 20.2013 23.868 19.8935C24.0238 19.5857 24.2461 19.3482 24.5349 19.181C24.8237 19.01 25.1676 18.9245 25.5666 18.9245C25.9618 18.9245 26.3038 19.01 26.5926 19.181C26.8814 19.3482 27.1037 19.5857 27.2595 19.8935C27.4191 20.2013 27.4989 20.5642 27.4989 20.9822C27.4989 21.404 27.4191 21.7707 27.2595 22.0823C27.1037 22.3901 26.8814 22.6295 26.5926 22.8005C26.3038 22.9715 25.9618 23.057 25.5666 23.057C25.1676 23.057 24.8237 22.9715 24.5349 22.8005C24.2499 22.6295 24.0295 22.3901 23.8737 22.0823C23.7179 21.7707 23.64 21.4059 23.64 20.9879ZM24.4095 20.9879C24.4095 21.4401 24.5064 21.7935 24.7002 22.0481C24.894 22.3027 25.1828 22.43 25.5666 22.43C25.939 22.43 26.2259 22.3027 26.4273 22.0481C26.6287 21.7935 26.7294 21.4401 26.7294 20.9879C26.7294 20.5319 26.6287 20.1785 26.4273 19.9277C26.2297 19.6769 25.9428 19.5515 25.5666 19.5515C25.1828 19.5515 24.894 19.6769 24.7002 19.9277C24.5064 20.1785 24.4095 20.5319 24.4095 20.9879Z" fill="url(#paint1_linear_848_350)"/>
<defs>
<linearGradient id="paint0_linear_848_350" x1="3.94805" y1="13" x2="28.0519" y2="13" gradientUnits="userSpaceOnUse">
<stop stop-color="#EFB964"/>
<stop offset="0.31" stop-color="#F8ED7E"/>
<stop offset="0.6" stop-color="#FFE461"/>
<stop offset="1" stop-color="#FFE963"/>
</linearGradient>
<linearGradient id="paint1_linear_848_350" x1="3.94805" y1="21" x2="28.0519" y2="21" gradientUnits="userSpaceOnUse">
<stop stop-color="#EFB964"/>
<stop offset="0.31" stop-color="#F8ED7E"/>
<stop offset="0.6" stop-color="#FFE461"/>
<stop offset="1" stop-color="#FFE963"/>
</linearGradient>
</defs>
</svg>
