<svg aria-hidden="true" style="position:absolute;width:0;height:0;overflow:hidden" xmlns="http://www.w3.org/2000/svg"><defs><symbol id="arrow-down-right" viewBox="0 0 37 32">
<path d="M3.182 14.466l-1.684-0.029-0.059 3.368 1.684 0.029 0.059-3.368zM31.463 18.329c0.93 0.016 1.697-0.725 1.713-1.655s-0.725-1.697-1.655-1.713l-0.059 3.368zM21.277 1.379c-0.646-0.669-1.712-0.688-2.381-0.042s-0.688 1.712-0.042 2.381l2.423-2.34zM33.715 16.683l1.17 1.212c0.321-0.31 0.506-0.735 0.514-1.182s-0.162-0.878-0.472-1.199l-1.212 1.17zM18.411 29.121c-0.669 0.646-0.688 1.712-0.042 2.381s1.712 0.688 2.381 0.042l-2.34-2.423zM3.123 17.834l28.34 0.495 0.059-3.368-28.34-0.495-0.059 3.368zM18.854 3.718l13.65 14.134 2.423-2.34-13.65-14.134-2.423 2.34zM32.545 15.471l-14.134 13.649 2.34 2.423 14.134-13.65-2.34-2.423z"></path>
</symbol>
<symbol id="arrow-down-right2" viewBox="0 0 37 32">
<path d="M3.513 13.432l-2.285-0.040-0.080 4.571 2.285 0.040 0.080-4.571zM30.905 18.482c1.262 0.022 2.303-0.983 2.325-2.245s-0.983-2.303-2.245-2.325l-0.080 4.571zM21.511 0.946c-0.877-0.908-2.324-0.933-3.232-0.056s-0.933 2.324-0.056 3.232l3.288-3.176zM33.099 16.235l1.588 1.644c0.908-0.877 0.933-2.324 0.056-3.232l-1.644 1.588zM17.809 27.823c-0.908 0.877-0.933 2.324-0.056 3.232s2.324 0.933 3.232 0.056l-3.176-3.288zM3.433 18.003l27.472 0.48 0.080-4.571-27.472-0.48-0.080 4.571zM18.223 4.121l13.232 13.702 3.288-3.176-13.232-13.702-3.288 3.176zM31.511 14.591l-13.702 13.232 3.176 3.288 13.702-13.232-3.176-3.288z"></path>
</symbol></defs></svg>

