<svg width="100" height="76" viewBox="0 0 100 76" fill="none" xmlns="http://www.w3.org/2000/svg">
<path d="M22.5292 16.4478H91.4772V58.9851H8.52271V30.8952" fill="#132335"/>
<path d="M22.5292 16.4478H91.4772V58.9851H8.52271V30.8952" stroke="url(#paint0_linear_128_2356)" stroke-width="3" stroke-miterlimit="10"/>
<mask id="mask0_128_2356" style="mask-type:luminance" maskUnits="userSpaceOnUse" x="15" y="22" width="71" height="31">
<path d="M58.618 52.4319L80.0493 52.3893C80.0493 49.9449 82.359 47.9574 85.2194 47.9515L85.1777 27.2905C82.3173 27.2964 79.9956 25.3184 79.9897 22.8728L58.053 22.9166H42.1756L20.7229 22.8787L18.1497 24.2601L15.051 27.5273L15.0093 47.9467C17.8696 47.9527 20.1842 49.9401 20.1794 52.3846L41.6107 52.4272L58.618 52.4319Z" fill="white"/>
</mask>
<g mask="url(#mask0_128_2356)">
<path d="M79.5749 22.8728H73.9305H68.286H62.6415H56.9971H56.2999H55.6027H54.9054H54.2082H53.511H52.8138H52.1166H51.4194H50.7222H50.0249H49.3265H48.6293H47.9321H47.2349H46.5377H45.8405H45.1432H44.446H43.7488H43.0516H42.3544H41.6572H40.96H40.2627H39.5655H38.8683H38.1711H37.4739H36.7767H36.3572H35.9388H35.5205H35.1022H34.6838H34.2643H33.846H33.4277H33.0093H32.5898H32.1715H31.7532H31.3348H30.9165H30.497H30.0786H29.6603H29.242H28.8225H28.4041H27.9858H27.5675H27.1492H26.7296H26.3113H25.893H25.4746H25.0551H24.6368H24.2185H23.8001H23.3806H22.9623H22.544H22.1256H21.7061H21.2878H20.8695H20.4511H20.0328H19.6133H19.1949H18.7766H18.3583H17.94H17.5204H17.1021H16.6838H16.2655H15.8459H15.4276H15.0093V52.4319H15.4276H15.8459H16.2655H16.6838H17.1021H17.5204H17.94H18.3583H18.7766H19.1949H19.6133H20.0328H20.4511H20.8695H21.2878H21.7061H22.1256H22.544H22.9623H23.3806H23.8001H24.2185H24.6368H25.0551H25.4746H25.893H26.3113H26.7296H27.1492H27.5675H27.9858H28.4041H28.8225H29.242H29.6603H30.0786H30.497H30.9165H31.3348H31.7532H32.1715H32.5898H33.0093H33.4277H33.846H34.2643H34.6838H35.1022H35.5205H35.9388H36.3572H36.7767H37.4739H38.1711H38.8683H39.5655H40.2627H40.96H41.6572H42.3544H43.0516H43.7488H44.446H45.1432H45.8405H46.5377H47.2349H47.9321H48.6293H49.3265H50.0249H50.7222H51.4194H52.1166H52.8138H53.511H54.2082H54.9054H55.6027H56.2999H56.9971H62.6415H68.286H73.9305H79.5749H85.2194V22.8728H79.5749Z" fill="url(#paint1_linear_128_2356)" stroke="#132335" stroke-width="3" stroke-miterlimit="10"/>
</g>
<path d="M58.3955 52.179L79.5546 52.1373C79.5546 49.7453 81.835 47.8004 84.659 47.7946L84.6178 27.5767C81.7938 27.5824 79.5016 25.6468 79.4957 23.2537L57.8378 23.2965H42.1621L20.9818 23.2595L18.4414 24.6113L15.382 27.8083L15.3408 47.79C18.1649 47.7958 20.45 49.7407 20.4453 52.1327L41.6043 52.1744L58.3955 52.179Z" stroke="#132335" stroke-width="3" stroke-miterlimit="10"/>
<path d="M28.4092 39.7014C29.6644 39.7014 30.6819 38.6857 30.6819 37.4327C30.6819 36.1798 29.6644 35.1641 28.4092 35.1641C27.154 35.1641 26.1365 36.1798 26.1365 37.4327C26.1365 38.6857 27.154 39.7014 28.4092 39.7014Z" fill="#132335"/>
<path d="M71.8751 39.7014C72.9734 39.7014 73.8637 38.6857 73.8637 37.4327C73.8637 36.1798 72.9734 35.1641 71.8751 35.1641C70.7768 35.1641 69.8865 36.1798 69.8865 37.4327C69.8865 38.6857 70.7768 39.7014 71.8751 39.7014Z" fill="#132335"/>
<path d="M49.9999 53.8806C57.531 53.8806 63.6363 46.6437 63.6363 37.7164C63.6363 28.7892 57.531 21.5522 49.9999 21.5522C42.4687 21.5522 36.3635 28.7892 36.3635 37.7164C36.3635 46.6437 42.4687 53.8806 49.9999 53.8806Z" fill="#132335"/>
<path d="M49.9999 53.8806C42.4793 53.8806 36.3635 46.6322 36.3635 37.7164C36.3635 28.8007 42.4793 21.5522 49.9999 21.5522C57.5205 21.5522 63.6363 28.8007 63.6363 37.7164C63.6363 46.6322 57.5193 53.8806 49.9999 53.8806ZM49.9999 21.961C42.7242 21.961 36.7959 29.0322 36.7959 37.7164C36.7959 46.4006 42.7242 53.4719 49.9999 53.4719C57.2756 53.4719 63.2027 46.4006 63.2027 37.7164C63.2027 29.0322 57.2805 21.961 49.9999 21.961Z" fill="url(#paint2_linear_128_2356)"/>
<path d="M22.7273 16.4478L20.2991 28.5417C16.6432 27.7753 12.8283 28.4639 9.68456 30.4576L8.52271 31.194L16.1094 23.2132" fill="#132335"/>
<path d="M8.52271 31.194V31.1213L9.67775 30.3886C12.8031 28.4047 16.5956 27.7195 20.2301 28.4821L22.644 16.4478H22.7273" stroke="url(#paint3_linear_128_2356)" stroke-width="3" stroke-miterlimit="10"/>
<path d="M8.52271 30.8952V58.9851H91.4773V16.4478H22.5292L8.52271 30.8952Z" stroke="url(#paint4_linear_128_2356)" stroke-width="3" stroke-miterlimit="10"/>
<defs>
<linearGradient id="paint0_linear_128_2356" x1="8.34315" y1="37.7164" x2="91.6568" y2="37.7164" gradientUnits="userSpaceOnUse">
<stop stop-color="#EFB964"/>
<stop offset="0.31" stop-color="#F8ED7E"/>
<stop offset="0.6" stop-color="#FFE461"/>
<stop offset="1" stop-color="#FFE963"/>
</linearGradient>
<linearGradient id="paint1_linear_128_2356" x1="15.0093" y1="37.653" x2="85.2194" y2="37.653" gradientUnits="userSpaceOnUse">
<stop stop-color="#EFB964"/>
<stop offset="0.31" stop-color="#F8ED7E"/>
<stop offset="0.6" stop-color="#FFE461"/>
<stop offset="1" stop-color="#FFE963"/>
</linearGradient>
<linearGradient id="paint2_linear_128_2356" x1="36.3635" y1="-24.8098" x2="63.6363" y2="-24.8098" gradientUnits="userSpaceOnUse">
<stop stop-color="#EFB964"/>
<stop offset="0.31" stop-color="#F8ED7E"/>
<stop offset="0.6" stop-color="#FFE461"/>
<stop offset="1" stop-color="#FFE963"/>
</linearGradient>
<linearGradient id="paint3_linear_128_2356" x1="-14.8317" y1="23.7327" x2="22.7285" y2="23.7327" gradientUnits="userSpaceOnUse">
<stop stop-color="#EFB964"/>
<stop offset="0.31" stop-color="#F8ED7E"/>
<stop offset="0.6" stop-color="#FFE461"/>
<stop offset="1" stop-color="#FFE963"/>
</linearGradient>
<linearGradient id="paint4_linear_128_2356" x1="8.34315" y1="37.7164" x2="91.6568" y2="37.7164" gradientUnits="userSpaceOnUse">
<stop stop-color="#EFB964"/>
<stop offset="0.31" stop-color="#F8ED7E"/>
<stop offset="0.6" stop-color="#FFE461"/>
<stop offset="1" stop-color="#FFE963"/>
</linearGradient>
</defs>
</svg>
