<svg width="176" height="134" viewBox="0 0 176 134" fill="none" xmlns="http://www.w3.org/2000/svg">
<path d="M39.6515 29H161V104H15V54.4731" fill="#132335"/>
<path d="M39.6515 29H161V104H15V54.4731" stroke="url(#paint0_linear_121_1542)" stroke-width="3" stroke-miterlimit="10"/>
<mask id="mask0_121_1542" style="mask-type:luminance" maskUnits="userSpaceOnUse" x="26" y="40" width="124" height="53">
<path d="M103.168 92.4458L140.887 92.3706C140.887 88.0607 144.952 84.5564 149.986 84.546L149.913 48.1175C144.879 48.1279 140.792 44.6404 140.782 40.3284L102.174 40.4056H74.2293L36.4724 40.3388L31.9437 42.7745L26.4899 48.5349L26.4165 84.5377C31.4508 84.5481 35.5243 88.0524 35.5159 92.3623L73.235 92.4374L103.168 92.4458Z" fill="white"/>
</mask>
<g mask="url(#mask0_121_1542)">
<path d="M140.052 40.3284H130.118H120.184H110.249H100.315H99.088H97.8608H96.6338H95.4067H94.1796H92.9525H91.7254H90.4983H89.2712H88.0441H86.8149H85.5878H84.3607H83.1336H81.9065H80.6794H79.4523H78.2252H76.9981H75.771H74.5439H73.3168H72.0897H70.8626H69.6355H68.4084H67.1813H65.9542H64.7271H63.9888H63.2525H62.5162H61.78H61.0437H60.3054H59.5691H58.8329H58.0966H57.3582H56.622H55.8857H55.1495H54.4132H53.6749H52.9386H52.2023H51.4661H50.7277H49.9915H49.2552H48.5189H47.7827H47.0443H46.3081H45.5718H44.8356H44.0972H43.3609H42.6247H41.8884H41.1501H40.4138H39.6776H38.9413H38.2029H37.4667H36.7304H35.9942H35.2579H34.5195H33.7833H33.047H32.3108H31.5745H30.8362H30.0999H29.3636H28.6274H27.889H27.1528H26.4165V92.4458H27.1528H27.889H28.6274H29.3636H30.0999H30.8362H31.5745H32.3108H33.047H33.7833H34.5195H35.2579H35.9942H36.7304H37.4667H38.2029H38.9413H39.6776H40.4138H41.1501H41.8884H42.6247H43.3609H44.0972H44.8356H45.5718H46.3081H47.0443H47.7827H48.5189H49.2552H49.9915H50.7277H51.4661H52.2023H52.9386H53.6749H54.4132H55.1495H55.8857H56.622H57.3582H58.0966H58.8329H59.5691H60.3054H61.0437H61.78H62.5162H63.2525H63.9888H64.7271H65.9542H67.1813H68.4084H69.6355H70.8626H72.0897H73.3168H74.5439H75.771H76.9981H78.2252H79.4523H80.6794H81.9065H83.1336H84.3607H85.5878H86.8149H88.0441H89.2712H90.4983H91.7254H92.9525H94.1796H95.4067H96.6338H97.8608H99.088H100.315H110.249H120.184H130.118H140.052H149.986V40.3284H140.052Z" fill="url(#paint1_linear_121_1542)" stroke="#132335" stroke-width="3" stroke-miterlimit="10"/>
</g>
<path d="M102.776 92L140.016 91.9265C140.016 87.709 144.03 84.2798 149 84.2696L148.928 48.6221C143.957 48.6323 139.923 45.2195 139.913 41L101.795 41.0756H74.2054L36.9282 41.0102L32.457 43.3937L27.0725 49.0306L27 84.2615C31.9703 84.2717 35.9921 87.7008 35.9838 91.9183L73.2237 91.9918L102.776 92Z" stroke="#132335" stroke-width="3" stroke-miterlimit="10"/>
<path d="M50 70C52.2091 70 54 68.2091 54 66C54 63.7909 52.2091 62 50 62C47.7909 62 46 63.7909 46 66C46 68.2091 47.7909 70 50 70Z" fill="#132335"/>
<path d="M126.5 70C128.433 70 130 68.2091 130 66C130 63.7909 128.433 62 126.5 62C124.567 62 123 63.7909 123 66C123 68.2091 124.567 70 126.5 70Z" fill="#132335"/>
<path d="M88 95C101.255 95 112 82.2401 112 66.5C112 50.7599 101.255 38 88 38C74.7452 38 64 50.7599 64 66.5C64 82.2401 74.7452 95 88 95Z" fill="#132335"/>
<path d="M88 95C74.7637 95 64 82.2199 64 66.5C64 50.7801 74.7637 38 88 38C101.236 38 112 50.7801 112 66.5C112 82.2199 101.234 95 88 95ZM88 38.7207C75.1948 38.7207 64.761 51.1884 64.761 66.5C64.761 81.8116 75.1948 94.2793 88 94.2793C100.805 94.2793 111.237 81.8116 111.237 66.5C111.237 51.1884 100.814 38.7207 88 38.7207Z" fill="url(#paint2_linear_121_1542)"/>
<path d="M40 29L35.7265 50.3236C29.2921 48.9723 22.5779 50.1864 17.0449 53.7016L15 55L28.3526 40.9285" fill="#132335"/>
<path d="M15 55V54.8718L17.0329 53.5798C22.5335 50.0819 29.2083 48.8739 35.605 50.2185L39.8534 29H40" stroke="url(#paint3_linear_121_1542)" stroke-width="3" stroke-miterlimit="10"/>
<path d="M15 54.4731V104H161V29H39.6515L15 54.4731Z" stroke="url(#paint4_linear_121_1542)" stroke-width="3" stroke-miterlimit="10"/>
<defs>
<linearGradient id="paint0_linear_121_1542" x1="14.684" y1="66.5" x2="161.316" y2="66.5" gradientUnits="userSpaceOnUse">
<stop stop-color="#EFB964"/>
<stop offset="0.31" stop-color="#F8ED7E"/>
<stop offset="0.6" stop-color="#FFE461"/>
<stop offset="1" stop-color="#FFE963"/>
</linearGradient>
<linearGradient id="paint1_linear_121_1542" x1="26.4165" y1="66.3881" x2="149.986" y2="66.3881" gradientUnits="userSpaceOnUse">
<stop stop-color="#EFB964"/>
<stop offset="0.31" stop-color="#F8ED7E"/>
<stop offset="0.6" stop-color="#FFE461"/>
<stop offset="1" stop-color="#FFE963"/>
</linearGradient>
<linearGradient id="paint2_linear_121_1542" x1="64" y1="-43.7436" x2="112" y2="-43.7436" gradientUnits="userSpaceOnUse">
<stop stop-color="#EFB964"/>
<stop offset="0.31" stop-color="#F8ED7E"/>
<stop offset="0.6" stop-color="#FFE461"/>
<stop offset="1" stop-color="#FFE963"/>
</linearGradient>
<linearGradient id="paint3_linear_121_1542" x1="-26.1038" y1="41.8445" x2="40.0021" y2="41.8445" gradientUnits="userSpaceOnUse">
<stop stop-color="#EFB964"/>
<stop offset="0.31" stop-color="#F8ED7E"/>
<stop offset="0.6" stop-color="#FFE461"/>
<stop offset="1" stop-color="#FFE963"/>
</linearGradient>
<linearGradient id="paint4_linear_121_1542" x1="14.684" y1="66.5" x2="161.316" y2="66.5" gradientUnits="userSpaceOnUse">
<stop stop-color="#EFB964"/>
<stop offset="0.31" stop-color="#F8ED7E"/>
<stop offset="0.6" stop-color="#FFE461"/>
<stop offset="1" stop-color="#FFE963"/>
</linearGradient>
</defs>
</svg>
