<svg width="80" height="94" viewBox="0 0 80 94" fill="none" xmlns="http://www.w3.org/2000/svg">
<path d="M38.3819 43.4926L38.0389 41.8274C37.9371 41.3328 38.0853 40.8198 38.4352 40.4558V40.4558C38.7242 40.1551 39.1233 39.9851 39.5405 39.9851H39.8621C40.3616 39.9851 40.8306 40.2252 41.1227 40.6304V40.6304C41.3134 40.895 41.416 41.2129 41.416 41.5391V41.8614C41.416 42.0132 41.4025 42.1647 41.3756 42.3141L41.1632 43.4926" stroke="#132335" stroke-width="2.5" stroke-linecap="round"/>
<path d="M31.912 31.5673L19.469 3.50757L31.912 4.111M35.956 5.61959L47.1547 31.5673M41.2443 14.0677L46.2215 4.111H58.3534M60.5309 8.03333L48.0879 29.757" stroke="#132335" stroke-width="2.5" stroke-linecap="round"/>
<path d="M44.9141 33.6716H33.1123C32.5288 33.6716 32.0037 34.0388 31.7968 34.5843V34.5843C31.6177 35.0564 31.7081 35.5939 32.0358 35.9779V35.9779C32.3056 36.2941 32.7034 36.4722 33.1189 36.4628L44.9141 36.197H46.6781C47.2909 36.197 47.7876 35.7003 47.7876 35.0875V35.0875C47.7876 34.8952 47.7376 34.7061 47.6424 34.5389L47.149 33.6716" stroke="#132335" stroke-width="2.5" stroke-linecap="round"/>
<path d="M38.584 36.4775V38.5041C38.584 39.0488 38.9058 39.5421 39.4043 39.7617L39.6272 39.8598C39.8095 39.9401 40.0159 39.9466 40.203 39.878V39.878C40.5063 39.7667 40.7079 39.478 40.7079 39.1549V36.4775" stroke="#132335" stroke-width="2" stroke-linecap="round"/>
<ellipse cx="39.6459" cy="65.9403" rx="21.2389" ry="21.0448" fill="url(#paint0_linear_128_2375)"/>
<path d="M60.0532 58.3114C58.5948 54.2695 55.9173 50.7553 52.3742 48.2327C48.8311 45.7101 44.5891 44.2979 40.2082 44.1824C35.8274 44.067 31.5137 45.2537 27.8369 47.586C24.16 49.9183 21.2929 53.2864 19.614 57.2456C17.9352 61.2048 17.5236 65.5689 18.4336 69.7617C19.3436 73.9545 21.5324 77.7787 24.711 80.7294C27.8896 83.6802 31.9085 85.6187 36.237 86.2889C40.5655 86.9592 45.0002 86.3297 48.9553 84.4836" stroke="#132335" stroke-width="2.5" stroke-linecap="round"/>
<path d="M23.7763 62.9349C23.4099 66.2091 24.0637 69.5258 25.6512 72.447C27.2387 75.3681 29.6853 77.7564 32.668 79.2964C35.6507 80.8365 39.0292 81.4558 42.3574 81.0727C45.6855 80.6897 48.8069 79.3221 51.3092 77.1507C53.8116 74.9793 55.5773 72.1062 56.3732 68.9107C57.169 65.7152 56.9577 62.3476 55.767 59.2526C54.5763 56.1575 52.4623 53.4807 49.704 51.5754C46.9458 49.6701 43.6731 48.626 40.318 48.581" stroke="#132335" stroke-width="2.5" stroke-linecap="round"/>
<defs>
<linearGradient id="paint0_linear_128_2375" x1="18.315" y1="65.9403" x2="60.9768" y2="65.9403" gradientUnits="userSpaceOnUse">
<stop stop-color="#EFB964"/>
<stop offset="0.31" stop-color="#F8ED7E"/>
<stop offset="0.6" stop-color="#FFE461"/>
<stop offset="1" stop-color="#FFE963"/>
</linearGradient>
</defs>
</svg>
