<svg width="114" height="134" viewBox="0 0 114 134" fill="none" xmlns="http://www.w3.org/2000/svg">
<path d="M54.7143 62L54.2275 59.6146C54.085 58.9163 54.293 58.1924 54.7846 57.6762V57.6762C55.1958 57.2444 55.7661 57 56.3624 57H56.7926C57.5055 57 58.1745 57.3443 58.5888 57.9244V57.9244C58.8562 58.2987 59 58.7473 59 59.2074V59.6752C59 59.8913 58.9809 60.107 58.9429 60.3198L58.6429 62" stroke="#132335" stroke-width="3" stroke-linecap="round"/>
<path d="M45.5758 45L28 5L45.5758 5.86022M51.2879 8.01075L67.1061 45M58.7576 20.0538L65.7879 5.86022H82.9242M86 11.4516L68.4242 42.4194" stroke="#132335" stroke-width="3" stroke-linecap="round"/>
<path d="M63.9412 48H47.2897C46.4549 48 45.7034 48.5284 45.4097 49.3099V49.3099C45.1588 49.9774 45.2853 50.7374 45.7457 51.2819V51.2819C46.1297 51.736 46.6985 51.9921 47.2931 51.9786L63.9412 51.6H66.4158C67.2907 51.6 68 50.8907 68 50.0158V50.0158C68 49.7432 67.9297 49.4752 67.7958 49.2378L67.098 48" stroke="#132335" stroke-width="3" stroke-linecap="round"/>
<path d="M55 52V54.9049C55 55.6722 55.4519 56.3675 56.153 56.6791L56.4705 56.8202C56.7299 56.9355 57.024 56.9448 57.2901 56.8463V56.8463C57.7168 56.6882 58 56.2813 58 55.8263V52" stroke="#132335" stroke-width="2" stroke-linecap="round"/>
<circle cx="56.5" cy="94" r="30" fill="url(#paint0_linear_123_1842)"/>
<path d="M85.325 83.1248C83.2651 77.363 79.4831 72.3533 74.4785 68.7573C69.4738 65.1613 63.482 63.1481 57.294 62.9835C51.106 62.8189 45.013 64.5107 39.8194 67.8354C34.6259 71.1602 30.576 75.9615 28.2046 81.6055C25.8333 87.2495 25.2519 93.4706 26.5373 99.4476C27.8227 105.424 30.9143 110.876 35.4041 115.082C39.8939 119.289 45.5706 122.052 51.6846 123.008C57.7987 123.963 64.0626 123.066 69.6492 120.434" stroke="#132335" stroke-width="3" stroke-linecap="round"/>
<path d="M34.0841 89.7153C33.5666 94.3829 34.49 99.1109 36.7324 103.275C38.9747 107.439 42.4306 110.844 46.6437 113.039C50.8567 115.235 55.6288 116.118 60.3299 115.571C65.0309 115.025 69.4398 113.076 72.9744 109.98C76.509 106.885 79.003 102.789 80.1272 98.2341C81.2514 93.6787 80.9528 88.8781 79.271 84.4661C77.5891 80.054 74.603 76.238 70.707 73.522C66.811 70.8059 62.1883 69.3175 57.4493 69.2534" stroke="#132335" stroke-width="3" stroke-linecap="round"/>
<defs>
<linearGradient id="paint0_linear_123_1842" x1="26.3701" y1="94" x2="86.6299" y2="94" gradientUnits="userSpaceOnUse">
<stop stop-color="#EFB964"/>
<stop offset="0.31" stop-color="#F8ED7E"/>
<stop offset="0.6" stop-color="#FFE461"/>
<stop offset="1" stop-color="#FFE963"/>
</linearGradient>
</defs>
</svg>
