<svg width="100" height="100" viewBox="0 0 100 100" fill="none" xmlns="http://www.w3.org/2000/svg">
<path d="M34.1805 22L22.9936 29.6852C20.9983 31.0536 19.3404 32.8447 18.1418 34.9266C16.9433 37.0086 16.2346 39.3285 16.0679 41.7155C15.6831 47.213 16.8104 55.0137 22.6781 64.4248C22.6781 64.4248 33.0301 82.8307 46.8065 87.2344C49.0926 87.9572 51.5133 88.1718 53.894 87.8629C56.2747 87.554 58.5559 86.7291 60.5733 85.4479L70 79.4943L61.7276 60.2614L34.1805 22Z" fill="url(#paint0_linear_128_2345)"/>
<path d="M69.7255 79.3007C78.157 74.1453 77.0149 56.9772 67.1746 40.9547C57.3343 24.9322 42.522 16.1227 34.0905 21.2781C25.659 26.4335 26.8011 43.6016 36.6415 59.6241C46.4818 75.6466 61.294 84.4561 69.7255 79.3007Z" fill="#132335"/>
<path d="M63.5861 80.9983C60.4323 80.9983 56.8542 79.8662 53.0799 77.6021C46.8725 73.9002 40.8536 67.6172 36.1325 59.9116C31.4113 52.206 28.5481 43.9909 28.0709 36.7778C27.5861 29.4759 29.6006 24.0571 33.7427 21.5175C37.8847 18.9778 43.6282 19.642 49.9111 23.3892C56.1148 27.1005 62.1375 33.3834 66.8661 41.0891C71.5948 48.7947 74.4505 57.0097 74.9296 64.2248C75.4125 71.5248 73.398 76.9436 69.256 79.4832C67.5449 80.5088 65.5805 81.0338 63.5861 80.9983ZM39.4088 20.7665C37.5547 20.7335 35.7285 21.2205 34.1369 22.1722C26.0262 27.1476 27.2051 43.906 36.7775 59.5305C44.511 72.1719 55.4075 80.2474 63.5842 80.2474C65.4382 80.2804 67.2644 79.7934 68.8561 78.8417C76.9667 73.8663 75.7879 57.1079 66.2154 41.4834C58.4763 28.8495 47.5854 20.7665 39.4088 20.7665Z" fill="url(#paint1_linear_128_2345)"/>
<path d="M34.4572 46C34.2386 45.4782 34.051 44.9413 33.8956 44.3929C33.7384 43.8449 33.6023 43.29 33.4875 42.7283C33.2559 41.6011 33.1057 40.4556 33.0383 39.3025C32.9688 38.1344 32.9939 36.9618 33.1132 35.7986C33.1487 35.5047 33.1805 35.2129 33.2273 34.919L33.3827 34.0456C33.4445 33.7538 33.5212 33.4661 33.5905 33.1784C33.6597 32.8907 33.759 32.605 33.8432 32.3193C33.9274 32.0337 34.0435 31.7583 34.1502 31.4788L34.3149 31.0678L34.5021 30.6568C34.6278 30.3848 34.7671 30.1206 34.9195 29.8656L35.1498 29.4813C35.2219 29.351 35.3026 29.2267 35.3912 29.1093L35.921 28.3962C36.1082 28.1743 36.3159 27.9585 36.5144 27.7447C36.613 27.6365 36.718 27.5356 36.8288 27.4426L37.1527 27.1549C37.265 27.0625 37.3679 26.9597 37.4859 26.8796L37.8359 26.6329C38.0641 26.4626 38.3038 26.3114 38.5528 26.1808C38.8018 26.0493 39.0451 25.9137 39.3016 25.7965C40.7956 25.1577 42.4017 24.8978 44 25.0361C43.751 25.1368 43.504 25.2211 43.2512 25.3136C42.9985 25.4061 42.7627 25.4739 42.5268 25.5869C42.291 25.6999 42.0551 25.7924 41.8211 25.8911C41.7039 25.9378 41.5895 25.9927 41.4786 26.0555L41.1416 26.2343C40.6994 26.4645 40.2683 26.7196 39.85 26.9987C39.4506 27.2877 39.0668 27.602 38.7007 27.94C37.9786 28.5991 37.3507 29.3736 36.8382 30.2375C36.7034 30.4431 36.5967 30.6773 36.4638 30.8952C36.3428 31.1162 36.2335 31.3447 36.1362 31.5795L35.9771 31.9248L35.8424 32.2865C35.7525 32.5269 35.6552 32.7612 35.584 33.014C35.2569 34.0103 35.0101 35.0363 34.8465 36.0801C34.6751 37.1472 34.5551 38.2235 34.4871 39.3046C34.3653 41.5341 34.3553 43.7693 34.4572 46Z" fill="url(#paint2_linear_128_2345)"/>
<path d="M39.8943 39C39.6072 40.1764 39.4535 41.3757 39.4354 42.5797C39.4029 43.7572 39.4733 44.9352 39.6459 46.1029C39.9876 48.4195 40.6677 50.6859 41.6687 52.8441C42.679 55.0201 43.9085 57.1093 45.3418 59.0859C46.7605 61.1 48.3666 63.0274 50 65C47.749 63.5742 45.7294 61.8763 43.9989 59.9545C42.2265 58.0207 40.785 55.8618 39.7217 53.5487C38.6388 51.2176 38.0554 48.725 38.002 46.2009C37.9813 44.9452 38.1226 43.6915 38.423 42.4648C38.5689 41.8549 38.7645 41.2555 39.0081 40.6712C39.1281 40.381 39.2628 40.0946 39.4039 39.812C39.5491 39.5328 39.7128 39.2617 39.8943 39Z" fill="url(#paint3_linear_128_2345)"/>
<path d="M64 48C64.3904 48.4634 64.7495 48.9418 65.0877 49.4429C65.426 49.9439 65.7454 50.4412 66.0502 50.9498C66.6566 51.9782 67.2016 53.0352 67.6829 54.1162C68.6612 56.296 69.3521 58.572 69.7414 60.8973C70.1005 63.2331 70.1402 65.6667 69.5076 68.0119C69.2128 69.1855 68.7199 70.3112 68.0461 71.3497C67.3781 72.3698 66.5051 73.2686 65.4719 74C66.1431 73.0439 66.6915 72.0221 67.1066 70.9541C67.5023 69.9171 67.7657 68.8428 67.8916 67.7519C68.1777 65.5782 68.0086 63.3668 67.6829 61.1592C67.3097 58.9427 66.7938 56.7476 66.1379 54.5852C65.4886 52.3964 64.7516 50.2208 64 48Z" fill="url(#paint4_linear_128_2345)"/>
<defs>
<linearGradient id="paint0_linear_128_2345" x1="15.9967" y1="54.9966" x2="69.9904" y2="54.9966" gradientUnits="userSpaceOnUse">
<stop stop-color="#EFB964"/>
<stop offset="0.31" stop-color="#F8ED7E"/>
<stop offset="0.6" stop-color="#FFE461"/>
<stop offset="1" stop-color="#FFE963"/>
</linearGradient>
<linearGradient id="paint1_linear_128_2345" x1="27.9992" y1="50.506" x2="74.9919" y2="50.506" gradientUnits="userSpaceOnUse">
<stop stop-color="#EFB964"/>
<stop offset="0.31" stop-color="#F8ED7E"/>
<stop offset="0.6" stop-color="#FFE461"/>
<stop offset="1" stop-color="#FFE963"/>
</linearGradient>
<linearGradient id="paint2_linear_128_2345" x1="33.0046" y1="35.5047" x2="44.0037" y2="35.5047" gradientUnits="userSpaceOnUse">
<stop stop-color="#EFB964"/>
<stop offset="0.31" stop-color="#F8ED7E"/>
<stop offset="0.6" stop-color="#FFE461"/>
<stop offset="1" stop-color="#FFE963"/>
</linearGradient>
<linearGradient id="paint3_linear_128_2345" x1="37.9978" y1="52" x2="49.9979" y2="52" gradientUnits="userSpaceOnUse">
<stop stop-color="#EFB964"/>
<stop offset="0.31" stop-color="#F8ED7E"/>
<stop offset="0.6" stop-color="#FFE461"/>
<stop offset="1" stop-color="#FFE963"/>
</linearGradient>
<linearGradient id="paint4_linear_128_2345" x1="64" y1="60.9972" x2="70.0003" y2="60.9972" gradientUnits="userSpaceOnUse">
<stop stop-color="#EFB964"/>
<stop offset="0.31" stop-color="#F8ED7E"/>
<stop offset="0.6" stop-color="#FFE461"/>
<stop offset="1" stop-color="#FFE963"/>
</linearGradient>
</defs>
</svg>
