<svg width="134" height="134" viewBox="0 0 134 134" fill="none" xmlns="http://www.w3.org/2000/svg">
<path d="M44.8474 24.2871L28.5757 35.6256C25.6735 37.6445 23.262 40.287 21.5187 43.3587C19.7753 46.4304 18.7445 49.853 18.502 53.3747C17.9424 61.4856 19.5821 72.9945 28.1167 86.8794C28.1167 86.8794 43.174 114.035 63.2122 120.532C66.5374 121.598 70.0583 121.915 73.5211 121.459C76.9838 121.003 80.302 119.787 83.2363 117.896L96.9477 109.113L84.9153 80.7369L44.8474 24.2871Z" fill="url(#paint0_linear_121_1531)"/>
<path d="M96.9345 109.101C109.259 101.565 107.589 76.4703 93.2058 53.0502C78.8221 29.63 57.171 16.7531 44.8467 24.2888C32.5223 31.8245 34.1917 56.9191 48.5754 80.3393C62.959 103.759 84.6101 116.636 96.9345 109.101Z" fill="#132335"/>
<path d="M88.8272 111.815C84.1486 111.815 78.8403 110.14 73.2411 106.789C64.0321 101.311 55.1029 92.0138 48.0989 80.6111C41.095 69.2083 36.8473 57.0517 36.1393 46.3777C35.4202 35.5725 38.4087 27.5537 44.5536 23.7956C50.6985 20.0375 59.2191 21.0203 68.54 26.5653C77.7434 32.0573 86.6782 41.3548 93.6934 52.7576C100.709 64.1603 104.945 76.3169 105.656 86.9937C106.372 97.7962 103.384 105.815 97.2387 109.573C94.7003 111.091 91.786 111.868 88.8272 111.815ZM52.9595 22.6843C50.209 22.6355 47.4997 23.3561 45.1384 24.7644C33.106 32.1271 34.8549 56.9261 49.0559 80.0471C60.5287 98.7539 76.6941 110.704 88.8244 110.704C91.5749 110.753 94.2842 110.032 96.6455 108.624C108.678 101.261 106.929 76.4621 92.728 53.3411C81.2468 34.6455 65.0898 22.6843 52.9595 22.6843Z" fill="url(#paint1_linear_121_1531)"/>
<path d="M45.3174 59.3636C44.9908 58.6546 44.7103 57.9253 44.478 57.1802C44.2429 56.4357 44.0396 55.6818 43.868 54.9187C43.5217 53.3873 43.2971 51.831 43.1964 50.2643C43.0926 48.6773 43.13 47.0843 43.3083 45.5039C43.3615 45.1046 43.4091 44.7081 43.479 44.3089L43.7113 43.1222C43.8036 42.7258 43.9183 42.3349 44.0219 41.944C44.1254 41.5531 44.2737 41.165 44.3996 40.7769C44.5256 40.3888 44.699 40.0147 44.8585 39.635L45.1048 39.0766L45.3846 38.5181C45.5725 38.1486 45.7808 37.7897 46.0086 37.4432L46.3528 36.9211C46.4606 36.7441 46.5813 36.5752 46.7138 36.4157L47.5057 35.4469C47.7855 35.1453 48.0961 34.8522 48.3927 34.5618C48.5401 34.4148 48.6972 34.2777 48.8628 34.1514L49.3469 33.7605C49.5148 33.6348 49.6687 33.4952 49.845 33.3863L50.3683 33.0513C50.7094 32.8198 51.0677 32.6145 51.44 32.437C51.8121 32.2584 52.1759 32.0741 52.5593 31.9149C54.7926 31.0471 57.1935 30.6939 59.5828 30.8819C59.2107 31.0187 58.8413 31.1332 58.4635 31.2588C58.0858 31.3844 57.7332 31.4766 57.3806 31.6301C57.028 31.7837 56.6755 31.9093 56.3257 32.0434C56.1504 32.1068 55.9794 32.1814 55.8136 32.2667L55.3099 32.5096C54.6488 32.8224 54.0044 33.1691 53.3792 33.5483C52.782 33.9408 52.2083 34.3678 51.661 34.827C50.5815 35.7226 49.643 36.7748 48.8768 37.9486C48.6753 38.2278 48.5158 38.5461 48.3172 38.842C48.1363 39.1424 47.9728 39.4528 47.8275 39.7718L47.5896 40.2408L47.3881 40.7322C47.2538 41.0589 47.1083 41.3772 47.002 41.7206C46.5129 43.0743 46.144 44.4683 45.8995 45.8864C45.6432 47.3362 45.4639 48.7984 45.3622 50.2671C45.1801 53.2962 45.1652 56.3329 45.3174 59.3636Z" fill="url(#paint2_linear_121_1531)"/>
<path d="M53.4323 49.5916C53.0506 51.3349 52.8463 53.1122 52.8223 54.8965C52.7791 56.6415 52.8727 58.3871 53.1021 60.1176C53.5564 63.5507 54.4604 66.9094 55.7912 70.1076C57.1343 73.3323 58.7687 76.4284 60.6741 79.3576C62.5601 82.3424 64.6952 85.1986 66.8666 88.1219C63.8741 86.009 61.1894 83.4927 58.8889 80.6448C56.5327 77.779 54.6164 74.5797 53.2028 71.1518C51.7632 67.6973 50.9877 64.0034 50.9167 60.2628C50.8892 58.4019 51.077 56.5441 51.4763 54.7261C51.6703 53.8224 51.9303 52.934 52.2542 52.0681C52.4137 51.6381 52.5928 51.2137 52.7803 50.7949C52.9734 50.3812 53.1911 49.9793 53.4323 49.5916Z" fill="url(#paint3_linear_121_1531)"/>
<path d="M88.4102 63.5518C88.9334 64.2386 89.4147 64.9478 89.868 65.6905C90.3214 66.4332 90.7495 67.1703 91.158 67.9241C91.9708 69.4485 92.7013 71.0152 93.3462 72.6175C94.6575 75.8486 95.5835 79.2222 96.1053 82.6689C96.5866 86.1311 96.6398 89.7384 95.7919 93.2145C95.3968 94.9541 94.7361 96.6227 93.8331 98.1621C92.9378 99.6741 91.7677 101.006 90.3829 102.09C91.2825 100.673 92.0175 99.1587 92.5739 97.5757C93.1042 96.0386 93.4572 94.4461 93.6261 92.8292C94.0094 89.6072 93.7828 86.3293 93.3462 83.057C92.846 79.7716 92.1546 76.518 91.2755 73.3128C90.4053 70.0684 89.4175 66.8436 88.4102 63.5518Z" fill="url(#paint4_linear_121_1531)"/>
<defs>
<linearGradient id="paint0_linear_121_1531" x1="18.3985" y1="72.9694" x2="96.9337" y2="72.9694" gradientUnits="userSpaceOnUse">
<stop stop-color="#EFB964"/>
<stop offset="0.31" stop-color="#F8ED7E"/>
<stop offset="0.6" stop-color="#FFE461"/>
<stop offset="1" stop-color="#FFE963"/>
</linearGradient>
<linearGradient id="paint1_linear_121_1531" x1="36.033" y1="66.6927" x2="105.748" y2="66.6927" gradientUnits="userSpaceOnUse">
<stop stop-color="#EFB964"/>
<stop offset="0.31" stop-color="#F8ED7E"/>
<stop offset="0.6" stop-color="#FFE461"/>
<stop offset="1" stop-color="#FFE963"/>
</linearGradient>
<linearGradient id="paint2_linear_121_1531" x1="43.146" y1="45.1046" x2="59.5884" y2="45.1046" gradientUnits="userSpaceOnUse">
<stop stop-color="#EFB964"/>
<stop offset="0.31" stop-color="#F8ED7E"/>
<stop offset="0.6" stop-color="#FFE461"/>
<stop offset="1" stop-color="#FFE963"/>
</linearGradient>
<linearGradient id="paint3_linear_121_1531" x1="50.9111" y1="68.8567" x2="66.8638" y2="68.8567" gradientUnits="userSpaceOnUse">
<stop stop-color="#EFB964"/>
<stop offset="0.31" stop-color="#F8ED7E"/>
<stop offset="0.6" stop-color="#FFE461"/>
<stop offset="1" stop-color="#FFE963"/>
</linearGradient>
<linearGradient id="paint4_linear_121_1531" x1="88.4102" y1="82.8169" x2="96.4523" y2="82.8169" gradientUnits="userSpaceOnUse">
<stop stop-color="#EFB964"/>
<stop offset="0.31" stop-color="#F8ED7E"/>
<stop offset="0.6" stop-color="#FFE461"/>
<stop offset="1" stop-color="#FFE963"/>
</linearGradient>
</defs>
</svg>
