<svg aria-hidden="true" style="position: absolute; width: 0; height: 0; overflow: hidden;" version="1.1" xmlns="http://www.w3.org/2000/svg" xmlns:xlink="http://www.w3.org/1999/xlink">
<defs>
<symbol id="icon-goit" viewBox="0 0 111 32">
<path d="M109.714 0v32h-48.274v-32h48.274zM76.678 8.808v13.928c0 0.015 0 0.030 0 0.046 0 0.030 0 0.046 0 0.076 0 0.091 0.015 0.137 0.107 0.122 0.030 0 0.046 0 0.076 0v0c0.015 0 0.015 0 0.030 0 0.396 0 0.792 0 1.204 0v0c0.792 0 1.6 0 2.392 0 0.030 0 0.046 0 0.076 0 0.076 0 0.107 0 0.122-0.015s0.015-0.061 0.015-0.122c0-0.015 0-0.046 0-0.076v-13.943c0-0.015 0-0.015 0-0.030 0-0.030 0-0.046 0-0.061 0.015-0.091-0.015-0.137-0.107-0.122-0.015 0-0.046 0-0.061 0 0 0-0.015 0-0.030 0-0.396 0-0.808 0-1.204 0-0.808 0-1.615 0-2.423 0-0.030 0-0.046 0-0.061 0-0.076 0-0.107 0-0.122 0.015s-0.015 0.046-0.015 0.107c0 0.030 0 0.046 0 0.076zM96.731 8.61h-6.004c-1.996 0-4.008 0-6.004 0-0.015 0-0.030 0-0.046 0-0.030 0-0.061 0-0.091 0-0.061 0-0.091 0.030-0.091 0.091 0.015 0.015 0.015 0.030 0 0.046 0 0.015 0 0.030 0 0.030v3.368c0 0.076 0 0.107 0.030 0.122 0.015 0.015 0.046 0.015 0.107 0.015h3.825c0.122 0 0.183 0 0.213 0.030s0.030 0.091 0.030 0.198v10.286c0 0.030 0 0.046 0 0.061 0 0.061 0 0.091 0.015 0.107s0.061 0.015 0.137 0.015h3.657c0.107 0 0.168 0 0.198-0.030 0.015-0.030 0.015-0.076 0.015-0.183v-10.286c0-0.015 0-0.046 0-0.061 0-0.061 0-0.091 0.015-0.107 0.015-0.030 0.061-0.030 0.137-0.030h3.901c0.152 0 0.152 0 0.168-0.152v-3.322c0-0.015 0-0.046 0-0.061 0-0.061 0-0.107-0.030-0.122-0.015-0.015-0.046-0.015-0.122-0.015-0.015 0-0.030 0-0.061 0z"></path>
<path d="M31.528 14.202c0.686-1.219 1.783-1.813 2.85-1.844 2.149 0 3.55 1.173 3.947 2.819 0.229 0.975 0.122 1.935-0.381 2.819-0.579 1.051-1.493 1.661-2.728 1.798-1.189 0.137-2.225-0.183-3.078-1.021-0.533-0.533-0.869-1.173-1.006-1.905-0.183-0.93-0.061-1.829 0.396-2.667z"></path>
<path d="M48.259 0l13.181 16-13.181 16h-48.259v-32h48.259zM21.333 13.653c0.076 0.061 0.152 0.122 0.229 0.168 0.046-0.015 0.076-0.061 0.107-0.107 0 0 0.015-0.015 0.015-0.015 0.259-0.305 0.518-0.61 0.792-0.914v0c0.518-0.61 1.036-1.219 1.554-1.813 0.107-0.122 0.107-0.183-0.015-0.29-0.091-0.076-0.198-0.152-0.29-0.229-0.823-0.655-1.737-1.173-2.758-1.463-0.686-0.198-1.387-0.305-2.103-0.35-0.93-0.061-1.859-0.030-2.773 0.168-3.2 0.716-5.577 3.291-5.867 6.598-0.076 0.884 0 1.768 0.229 2.636 0.533 1.966 1.691 3.459 3.535 4.45 1.006 0.533 2.088 0.823 3.23 0.914 0.975 0.076 1.92 0.015 2.865-0.198 1.6-0.35 3.017-1.051 4.267-2.057 0.107-0.076 0.137-0.168 0.137-0.29 0-1.57 0-3.154 0-4.724v-1.173c0-0.015 0-0.046 0-0.061 0-0.046 0-0.091 0-0.137 0.015-0.046 0-0.076-0.030-0.107-0.030-0.015-0.046-0.046-0.046-0.076 0.015-0.046-0.030-0.061-0.076-0.061h-6.735c-0.015 0-0.030 0-0.046 0s-0.046 0-0.076 0-0.091 0.030-0.091 0.091c0.015 0.030 0.015 0.046 0 0.076 0 0.015 0 0.030 0 0.030 0 0.35 0 0.701 0 1.036 0 0.701 0 1.387 0 2.072 0 0.030 0 0.061 0 0.076 0 0.061 0 0.091 0.015 0.107 0.015 0.030 0.061 0.030 0.137 0.015 0.015 0 0.030 0 0.061 0h2.667c0.030 0 0.046 0 0.061 0 0.076 0 0.107 0 0.122 0.015 0.015 0.030 0.015 0.061 0.015 0.122 0 0.015 0 0.046 0 0.076 0 0.152 0 0.29 0 0.442 0 0.076 0 0.152 0 0.229v0c0 0.32 0 0.32-0.274 0.457-0.853 0.381-1.737 0.503-2.651 0.381-1.021-0.122-1.844-0.594-2.438-1.402-0.381-0.518-0.594-1.112-0.686-1.752-0.091-0.823 0.015-1.615 0.396-2.347 0.457-0.899 1.158-1.539 2.149-1.829 0.701-0.213 1.417-0.152 2.118-0.015 0.64 0.137 1.189 0.442 1.707 0.823 0.183 0.137 0.366 0.274 0.549 0.427zM40.213 10.667c-1.585-1.387-3.444-2.042-5.379-2.057-0.899 0-1.57 0.076-2.27 0.244-2.057 0.533-3.672 1.646-4.739 3.429-1.097 1.829-1.326 3.794-0.701 5.806 0.686 2.255 2.149 3.901 4.404 4.815 1.737 0.701 3.535 0.792 5.364 0.335 2.103-0.533 3.718-1.722 4.785-3.581 0.884-1.554 1.128-3.23 0.792-4.983-0.29-1.57-1.036-2.926-2.255-4.008z"></path>
</symbol>
</defs>
</svg>
