<svg xmlns="http://www.w3.org/2000/svg" aria-hidden="true" style="position:absolute;width:0;height:0;overflow:hidden">
  <defs>
    <!-- example start -->
    <symbol id="icon-name" viewBox="0 0 32 32">
      <!-- path -->
    </symbol>
    <symbol id="icon-chevron-down" viewBox="0 0 32 32">
      <path d="M6.869 10.869a1.6 1.6 0 0 1 2.263 0l6.869 6.869 6.869-6.869a1.6 1.6 0 1 1 2.263 2.263l-8 8a1.6 1.6 0 0 1-2.263 0l-8-8a1.6 1.6 0 0 1 0-2.263z"/>
    </symbol>
    <symbol id="arrow-down-right" viewBox="0 0 24 24">
      <path d="M6 6L16.2 16.2" stroke="#B2B2B2" stroke-width="2" stroke-linecap="square" stroke-linejoin="round"/>
      <path d="M17 7V17H7" stroke="#B2B2B2" stroke-width="2" stroke-linecap="round" stroke-linejoin="round"/>
    </symbol>
    <!-- example end -->

    <symbol id="icon-instagram"  viewBox="0 0 22 22">
   <path d="M16.1536 6.05028C16.1448 5.44595 16.0329 4.84642 15.8186 4.28121C15.4435 3.31605 14.6799 2.55286 13.7131 2.17925C13.1541 1.96929 12.5632 1.85673 11.9651 1.84396C11.1958 1.80963 10.9519 1.80005 8.99919 1.80005C7.04646 1.80005 6.79617 1.80005 6.03251 1.84396C5.43517 1.85673 4.84423 1.96929 4.28528 2.17925C3.31851 2.55286 2.55405 3.31605 2.17982 4.28121C1.96951 4.83923 1.85596 5.42919 1.84477 6.02553C1.81038 6.79431 1.79999 7.03779 1.79999 8.98728C1.79999 10.9368 1.79999 11.1858 1.84477 11.949C1.85676 12.5462 1.96951 13.1353 2.17982 13.6949C2.55485 14.6593 3.31851 15.4225 4.28608 15.7961C4.84264 16.0132 5.43357 16.1362 6.03331 16.1553C6.80336 16.1897 7.04726 16.2001 8.99999 16.2001C10.9527 16.2001 11.203 16.2001 11.9667 16.1553C12.564 16.1434 13.1549 16.0308 13.7147 15.8209C14.6815 15.4464 15.4451 14.6833 15.8202 13.7189C16.0305 13.1601 16.1432 12.5709 16.1552 11.973C16.1896 11.205 16.2 10.9615 16.2 9.01123C16.1984 7.06174 16.1984 6.81426 16.1536 6.05028ZM8.99439 12.6739C6.9521 12.6739 5.29763 11.0222 5.29763 8.98329C5.29763 6.94439 6.9521 5.29268 8.99439 5.29268C11.0351 5.29268 12.6911 6.94439 12.6911 8.98329C12.6911 11.0222 11.0351 12.6739 8.99439 12.6739ZM12.8383 6.01675C12.3609 6.01675 11.9763 5.63196 11.9763 5.15616C11.9763 4.68037 12.3609 4.29558 12.8383 4.29558C13.3141 4.29558 13.6995 4.68037 13.6995 5.15616C13.6995 5.63196 13.3141 6.01675 12.8383 6.01675Z" fill="white"/>
<path d="M8.99554 11.2364C10.2394 11.2364 11.2478 10.2281 11.2478 8.98418C11.2478 7.7403 10.2394 6.73193 8.99554 6.73193C7.75165 6.73193 6.74329 7.7403 6.74329 8.98418C6.74329 10.2281 7.75165 11.2364 8.99554 11.2364Z" fill="white"/></symbol>
<symbol id="icon-telegram" viewBox="0 0 18 12"><path d="M14.4978 0.786394L1.20034 5.91414C0.292844 6.27864 0.298095 6.78489 1.03384 7.01064L4.44784 8.07564L12.3468 3.09189C12.7203 2.86464 13.0616 2.98689 12.7811 3.23589L6.38134 9.01164H6.37984L6.38134 9.01239L6.14584 12.5314C6.49084 12.5314 6.64309 12.3731 6.83659 12.1864L8.49484 10.5739L11.9441 13.1216C12.5801 13.4719 13.0368 13.2919 13.1951 12.5329L15.4593 1.86189C15.6911 0.932644 15.1046 0.511894 14.4978 0.786394Z" fill="white"></path></symbol>
<symbol id="icon-close" viewBox="0 0 40 40">
<path d="M18.984 6.422l-5.578 5.578 5.578 5.578-1.406 1.406-5.578-5.578-5.578 5.578-1.406-1.406 5.578-5.578-5.578-5.578 1.406-1.406 5.578 5.578 5.578-5.578z"></path>
</symbol>
=
    <symbol id="icon-arrow-down-right" viewBox="0 0 32 32">
      <path fill="none" stroke="#b2b2b2" stroke-linecap="square" stroke-linejoin="round" stroke-width="2.667" d="m8 8 13.6 13.6" style="stroke:var(--color1, #b2b2b2)"/>
      <path fill="none" stroke="#b2b2b2" stroke-linecap="round" stroke-linejoin="round" stroke-width="2.667" d="M22.667 9.333v13.333H9.334" style="stroke:var(--color1, #b2b2b2)"/>
    </symbol>

  </defs>
</svg>
