<svg xmlns="http://www.w3.org/2000/svg" aria-hidden="true" style="position:absolute;width:0;height:0;overflow:hidden">
  <defs>
    <!-- example start -->
    <symbol id="icon-name" viewBox="0 0 32 32">
      <!-- path -->
    </symbol>
    <!-- example end -->
    <symbol id="icon-tiktok" viewBox="0 0 27 32">
      <path d="M21.6 5.406c-1.172-1.338-1.818-3.056-1.817-4.834h-5.297v21.257c-0.041 1.15-0.527 2.24-1.355 3.039s-1.934 1.246-3.085 1.246c-2.434 0-4.457-1.989-4.457-4.457 0-2.949 2.846-5.16 5.777-4.251v-5.417c-5.914-0.789-11.091 3.806-11.091 9.669 0 5.709 4.731 9.771 9.754 9.771 5.383 0 9.754-4.371 9.754-9.771v-10.783c2.148 1.543 4.727 2.37 7.371 2.366v-5.297c0 0-3.223 0.154-5.554-2.537z"></path>
   </symbol>
   <symbol id="icon-instagram" viewBox="0 0 32 32">
      <path d="M30.307 10.1c-0.018-1.209-0.242-2.408-0.67-3.538-0.75-1.93-2.277-3.457-4.211-4.204-1.118-0.42-2.3-0.645-3.496-0.671-1.538-0.069-2.026-0.088-5.932-0.088s-4.406 0-5.933 0.088c-1.195 0.026-2.377 0.251-3.494 0.671-1.934 0.747-3.462 2.274-4.211 4.204-0.421 1.116-0.648 2.296-0.67 3.489-0.069 1.538-0.090 2.025-0.090 5.923s0 4.397 0.090 5.924c0.024 1.194 0.25 2.373 0.67 3.492 0.75 1.929 2.277 3.455 4.213 4.202 1.113 0.434 2.295 0.68 3.494 0.718 1.54 0.069 2.028 0.089 5.933 0.089s4.406 0 5.933-0.089c1.195-0.024 2.377-0.249 3.496-0.669 1.933-0.749 3.461-2.275 4.211-4.204 0.421-1.118 0.646-2.296 0.67-3.492 0.069-1.536 0.089-2.023 0.089-5.923-0.003-3.899-0.003-4.394-0.093-5.922zM15.989 23.347c-4.085 0-7.394-3.303-7.394-7.381s3.309-7.381 7.394-7.381c4.081 0 7.393 3.303 7.393 7.381s-3.312 7.381-7.393 7.381zM23.677 10.033c-0.955 0-1.724-0.77-1.724-1.721s0.769-1.721 1.724-1.721c0.952 0 1.723 0.77 1.723 1.721s-0.771 1.721-1.723 1.721z"></path>
   </symbol>
   <symbol id="icon-telegram" viewBox="0 0 32 32">
      <path d="M27.552 4.953l-23.64 9.116c-1.613 0.648-1.604 1.548-0.296 1.949l6.069 1.893 14.043-8.86c0.664-0.404 1.271-0.187 0.772 0.256l-11.377 10.269-0.419 6.256c0.613 0 0.884-0.281 1.228-0.613l2.948-2.867 6.132 4.529c1.131 0.623 1.943 0.303 2.224-1.047l4.025-18.971c0.412-1.652-0.631-2.4-1.709-1.912z"></path>
   </symbol>
  </defs>
</svg>
