<svg xmlns="http://www.w3.org/2000/svg" aria-hidden="true" style="position:absolute;width:0;height:0;overflow:hidden">
  <defs>
    <!-- example start -->
    <symbol id="icon-VectorTelegram" viewBox="0 0 37 32">
<path d="M33.18 1.271l-31.52 12.155c-2.151 0.864-2.139 2.064-0.395 2.599l8.092 2.524 18.724-11.813c0.885-0.539 1.694-0.249 1.029 0.341l-15.17 13.693-0.558 8.341c0.818 0 1.179-0.375 1.637-0.818l3.931-3.822 8.176 6.039c1.508 0.83 2.59 0.403 2.965-1.396l5.367-25.294c0.549-2.203-0.841-3.2-2.279-2.549z"></path>
</symbol>
<symbol id="icon-Burger" viewBox="0 0 44 32">
<path stroke-linejoin="round" stroke-linecap="round" stroke-miterlimit="4" stroke-width="4.3636" d="M2.182 16h39.273M2.182 2.909h39.273M15.273 29.091h26.182"></path>
</symbol>
<symbol id="icon-Vector" viewBox="0 0 48 32">
<path stroke-linejoin="round" stroke-linecap="round" stroke-miterlimit="4" stroke-width="8" d="M6 7l18 18 18-18"></path>
</symbol>
<symbol id="icon-Icon" viewBox="0 0 32 32">
<path stroke-linejoin="round" stroke-linecap="round" stroke-miterlimit="4" stroke-width="5.3333" d="M28.444 3.556l-24.889 24.889M3.556 3.556l24.889 24.889"></path>
</symbol>
    <symbol id="icon-name" viewBox="0 0 32 32">
      <!-- path -->
    </symbol>
    <symbol id="icon-chevron-down" viewBox="0 0 32 32">
      <path d="M6.869 10.869a1.6 1.6 0 0 1 2.263 0l6.869 6.869 6.869-6.869a1.6 1.6 0 1 1 2.263 2.263l-8 8a1.6 1.6 0 0 1-2.263 0l-8-8a1.6 1.6 0 0 1 0-2.263z"/>
    </symbol>
    <symbol id="arrow-down-right" viewBox="0 0 24 24">
      <path d="M6 6L16.2 16.2" stroke="#B2B2B2" stroke-width="2" stroke-linecap="square" stroke-linejoin="round"/>
      <path d="M17 7V17H7" stroke="#B2B2B2" stroke-width="2" stroke-linecap="round" stroke-linejoin="round"/>
    </symbol>
    <!-- example end -->
   <symbol id="icon-tiktok" viewBox="0 0 32 32">
      <path d="M22.133 7.751c-0.924-1.049-1.422-2.382-1.422-3.751h-4.124v16.516c-0.036 0.907-0.409 1.742-1.049 2.364s-1.511 0.978-2.4 0.978c-1.884 0-3.467-1.547-3.467-3.467 0-2.293 2.222-4.018 4.498-3.307v-4.213c-4.604-0.622-8.622 2.969-8.622 7.52 0 4.444 3.68 7.609 7.573 7.609 4.196 0 7.591-3.413 7.591-7.609v-8.391c1.671 1.209 3.68 1.849 5.742 1.849v-4.124c0 0-2.507 0.124-4.32-1.973z"></path>
   </symbol>
   <symbol id="icon-telegram" viewBox="0 0 32 32">
      <path d="M27.538 4.942l-23.627 9.12c-1.618 0.64-1.618 1.547-0.302 1.956l6.062 1.884 14.044-8.853c0.676-0.409 1.28-0.196 0.782 0.249l-11.378 10.276-0.427 6.258c0.622 0 0.889-0.284 1.227-0.622l2.951-2.862 6.133 4.533c1.138 0.622 1.938 0.302 2.222-1.049l4.018-18.969c0.427-1.653-0.622-2.4-1.707-1.92z"></path>
   </symbol>
   <symbol id="icon-instagram" viewBox="0 0 32 32">
     <path d="M28.711 10.738c-0.018-1.067-0.213-2.133-0.604-3.129-0.658-1.724-2.027-3.076-3.733-3.751-0.996-0.373-2.044-0.569-3.111-0.587-1.369-0.071-1.796-0.089-5.28-0.089-3.467 0-3.911 0-5.262 0.089-1.067 0.018-2.116 0.213-3.111 0.587-1.724 0.676-3.076 2.027-3.751 3.751-0.373 0.978-0.569 2.027-0.587 3.093-0.053 1.369-0.071 1.796-0.071 5.262s0 3.911 0.071 5.262c0.018 1.067 0.213 2.116 0.587 3.111 0.676 1.707 2.027 3.076 3.751 3.733 0.996 0.391 2.044 0.604 3.111 0.64 1.369 0.053 1.796 0.071 5.28 0.071 3.467 0 3.911 0 5.262-0.071 1.067-0.018 2.116-0.213 3.111-0.587 1.724-0.676 3.076-2.027 3.751-3.751 0.373-0.996 0.569-2.027 0.587-3.093 0.053-1.369 0.089-1.796 0.089-5.262-0.018-3.467-0.018-3.911-0.089-5.28zM15.982 22.524c-3.627 0-6.578-2.933-6.578-6.56s2.951-6.56 6.578-6.56c3.627 0 6.578 2.933 6.578 6.56s-2.951 6.56-6.578 6.56zM22.809 10.684c-0.836 0-1.529-0.676-1.529-1.529 0-0.836 0.693-1.529 1.529-1.529 0.853 0 1.529 0.693 1.529 1.529 0 0.853-0.676 1.529-1.529 1.529z"></path>
     <path d="M19.982 15.964c0 2.204-1.796 4-4 4s-4-1.796-4-4c0-2.204 1.796-4 4-4s4 1.796 4 4z"></path>
   </symbol>  
    <symbol id="icon-arrow-down-right" viewBox="0 0 32 32">
      <path fill="none" stroke="#b2b2b2" stroke-linecap="square" stroke-linejoin="round" stroke-width="2.667" d="m8 8 13.6 13.6" style="stroke:var(--color1, #b2b2b2)"/>
      <path fill="none" stroke="#b2b2b2" stroke-linecap="round" stroke-linejoin="round" stroke-width="2.667" d="M22.667 9.333v13.333H9.334" style="stroke:var(--color1, #b2b2b2)"/>
    </symbol>
  </defs>
</svg>