<svg xmlns="http://www.w3.org/2000/svg" aria-hidden="true" style="position:absolute;width:0;height:0;overflow:hidden">
  <defs>
    <!-- example start -->
    <symbol id="icon-name" viewBox="0 0 32 32">
      <!-- path -->
    </symbol>
    <!-- example end -->
   <symbol id="icon-tiktok" viewBox="0 0 32 32">
      <path d="M22.133 7.751c-0.924-1.049-1.422-2.382-1.422-3.751h-4.124v16.516c-0.036 0.907-0.409 1.742-1.049 2.364s-1.511 0.978-2.4 0.978c-1.884 0-3.467-1.547-3.467-3.467 0-2.293 2.222-4.018 4.498-3.307v-4.213c-4.604-0.622-8.622 2.969-8.622 7.52 0 4.444 3.68 7.609 7.573 7.609 4.196 0 7.591-3.413 7.591-7.609v-8.391c1.671 1.209 3.68 1.849 5.742 1.849v-4.124c0 0-2.507 0.124-4.32-1.973z"></path>
   </symbol>
   <symbol id="icon-telegram" viewBox="0 0 32 32">
      <path d="M27.538 4.942l-23.627 9.12c-1.618 0.64-1.618 1.547-0.302 1.956l6.062 1.884 14.044-8.853c0.676-0.409 1.28-0.196 0.782 0.249l-11.378 10.276-0.427 6.258c0.622 0 0.889-0.284 1.227-0.622l2.951-2.862 6.133 4.533c1.138 0.622 1.938 0.302 2.222-1.049l4.018-18.969c0.427-1.653-0.622-2.4-1.707-1.92z"></path>
   </symbol>
   <symbol id="icon-instagram" viewBox="0 0 32 32">
     <path d="M28.711 10.738c-0.018-1.067-0.213-2.133-0.604-3.129-0.658-1.724-2.027-3.076-3.733-3.751-0.996-0.373-2.044-0.569-3.111-0.587-1.369-0.071-1.796-0.089-5.28-0.089-3.467 0-3.911 0-5.262 0.089-1.067 0.018-2.116 0.213-3.111 0.587-1.724 0.676-3.076 2.027-3.751 3.751-0.373 0.978-0.569 2.027-0.587 3.093-0.053 1.369-0.071 1.796-0.071 5.262s0 3.911 0.071 5.262c0.018 1.067 0.213 2.116 0.587 3.111 0.676 1.707 2.027 3.076 3.751 3.733 0.996 0.391 2.044 0.604 3.111 0.64 1.369 0.053 1.796 0.071 5.28 0.071 3.467 0 3.911 0 5.262-0.071 1.067-0.018 2.116-0.213 3.111-0.587 1.724-0.676 3.076-2.027 3.751-3.751 0.373-0.996 0.569-2.027 0.587-3.093 0.053-1.369 0.089-1.796 0.089-5.262-0.018-3.467-0.018-3.911-0.089-5.28zM15.982 22.524c-3.627 0-6.578-2.933-6.578-6.56s2.951-6.56 6.578-6.56c3.627 0 6.578 2.933 6.578 6.56s-2.951 6.56-6.578 6.56zM22.809 10.684c-0.836 0-1.529-0.676-1.529-1.529 0-0.836 0.693-1.529 1.529-1.529 0.853 0 1.529 0.693 1.529 1.529 0 0.853-0.676 1.529-1.529 1.529z"></path>
     <path d="M19.982 15.964c0 2.204-1.796 4-4 4s-4-1.796-4-4c0-2.204 1.796-4 4-4s4 1.796 4 4z"></path>
   </symbol>  
   </defs>
</svg>
